#!OML:ASF E:\basketball\basketball\Project 1\Capture day 1\Session 1\Subject.ASF
:FULLY-SPECIFIED
:DEGREES
261
root 33.9942 16.1535 11.1424 -12.2333 67.6709 -23.5304
lowerback 7.23819 4.57565 7.4857
upperback 4.73204 6.68587 4.35163
thorax 1.20654 3.52284 -0.0366161
lowerneck 4.45075 -10.6688 -17.0195
upperneck -10.859 -13.464 28.0591
head -0.442494 -7.27624 11.682
rclavicle 1.90833e-014 2.94201e-014
rhumerus -14.7191 -3.13558 -93.6716
rradius 30.1887
rwrist 7.55078
rhand -35.4779 63.8517
rfingers 7.12502
rthumb -8.60595 34.0471
lclavicle 1.90833e-014 2.94201e-014
lhumerus -48.2243 -13.2298 107.638
lradius 94.0899
lwrist -1.35768
lhand -23.0377 24.5859
lfingers 7.12502
lthumb 3.40669 54.5384
rfemur 24.4336 -10.3238 27.4163
rtibia 34.414
rfoot -0.350225 -8.27292
rtoes -20.0515
lfemur -40.3784 3.17637 -21.8902
ltibia 24.1744
lfoot 12.6357 -12.0022
ltoes -31.4833
262
root 34.4201 16.0958 11.424 -14.8181 67.5595 -25.9613
lowerback 6.62182 4.51027 7.91774
upperback 5.16533 6.53527 4.3407
thorax 2.04663 3.49487 -0.181646
lowerneck 4.00496 -10.6159 -16.7362
upperneck -10.8839 -13.2761 28.4047
head -0.401187 -7.17021 11.7435
rclavicle 8.34896e-014 3.73715e-014
rhumerus -14.3048 -4.91588 -93.3904
rradius 29.8052
rwrist 8.28382
rhand -35.4123 62.8584
rfingers 7.12502
rthumb -8.54272 33.0512
lclavicle 8.34896e-014 3.73715e-014
lhumerus -46.8005 -12.6252 107.362
lradius 95.6409
lwrist -3.23535
lhand -23.5558 24.2311
lfingers 7.12502
lthumb 2.90633 54.191
rfemur 24.7694 -11.1323 27.9482
rtibia 37.5484
rfoot -0.757227 -9.17032
rtoes -21.5154
lfemur -39.8189 4.80908 -22.0753
ltibia 22.1965
lfoot 14.7001 -8.06248
ltoes -11.3529
263
root 34.8786 16.0431 11.7095 -15.0598 67.7605 -26.305
lowerback 4.52553 4.57135 7.81741
upperback 6.12554 6.32968 3.98285
thorax 4.24673 3.47293 -0.21385
lowerneck 3.42501 -10.7108 -16.496
upperneck -11.5731 -13.1467 29.0705
head -0.46571 -7.11353 11.939
rclavicle 2.38542e-014 -1.19271e-014
rhumerus -12.923 -6.92041 -93.1337
rradius 29.3722
rwrist 8.40915
rhand -34.8187 62.1601
rfingers 7.12502
rthumb -7.96981 32.3303
lclavicle 2.38542e-014 -1.19271e-014
lhumerus -44.4112 -12.644 106.845
lradius 97.0519
lwrist -5.00209
lhand -24.1376 24.0464
lfingers 7.12502
lthumb 2.34445 54.0132
rfemur 24.4249 -12.152 27.2547
rtibia 41.3607
rfoot -1.43839 -10.053
rtoes -21.1029
lfemur -39.6903 6.12643 -23.3314
ltibia 21.1005
lfoot 15.9402 -7.03061
ltoes -6.86876
264
root 35.2974 15.9794 11.9862 -15.449 67.8264 -26.6333
lowerback 4.94157 4.47493 7.01559
upperback 5.41914 6.25282 3.96593
thorax 3.16825 3.35946 0.101703
lowerneck 4.21553 -10.4023 -16.6084
upperneck -11.153 -12.8846 29.1154
head -0.543861 -7.02112 12.0474
rclavicle -1.04561e-013 1.35174e-014
rhumerus -14.1367 -8.34357 -92.3107
rradius 28.8177
rwrist 8.50001
rhand -34.1538 62.0394
rfingers 7.12502
rthumb -7.32806 32.1863
lclavicle -1.04561e-013 1.35174e-014
lhumerus -44.6953 -11.3943 106.945
lradius 98.7807
lwrist -6.82909
lhand -24.0604 24.4801
lfingers 7.12502
lthumb 2.41904 54.4461
rfemur 23.7413 -12.8701 26.8523
rtibia 45.7481
rfoot -2.02984 -11.5474
rtoes -16.1638
lfemur -39.3596 6.8397 -24.0542
ltibia 20.818
lfoot 16.2029 -7.19824
ltoes -11.3295
265
root 35.7217 15.8967 12.26 -16.046 68.0409 -26.9895
lowerback 4.25764 4.45253 6.89247
upperback 5.81354 6.13619 3.59204
thorax 3.98826 3.32815 -0.121418
lowerneck 4.11961 -10.3979 -16.5068
upperneck -11.4734 -12.7416 29.8446
head -0.582822 -6.97789 12.3183
rclavicle -2.98177e-015 -3.29983e-014
rhumerus -13.8672 -10.4131 -91.8825
rradius 28.4244
rwrist 9.17637
rhand -33.844 61.6934
rfingers 7.12502
rthumb -7.02901 31.8301
lclavicle -2.98177e-015 -3.29983e-014
lhumerus -43.0812 -11.5068 106.198
lradius 100.264
lwrist -8.09688
lhand -23.6561 25.1988
lfingers 7.12502
lthumb 2.80947 55.1601
rfemur 22.9221 -13.9377 26.1701
rtibia 50.4855
rfoot -2.67214 -12.4716
rtoes -21.6393
lfemur -38.7865 7.7314 -24.964
ltibia 21.5198
lfoot 15.937 -7.75843
ltoes -9.02029
266
root 36.1242 15.8189 12.5379 -15.5429 68.361 -25.7023
lowerback 4.69107 4.39845 5.84468
upperback 5.99314 6.07854 3.22934
thorax 3.85027 3.26722 0.0404511
lowerneck 3.92832 -10.401 -16.4222
upperneck -11.4024 -12.7013 30.2207
head -0.507771 -6.95364 12.4293
rclavicle 1.39149e-015 -8.34896e-015
rhumerus -14.3642 -11.7848 -91.165
rradius 28.4351
rwrist 9.24835
rhand -33.6423 61.1159
rfingers 7.12502
rthumb -6.83429 31.2463
lclavicle 1.39149e-015 -8.34896e-015
lhumerus -41.9775 -11.3284 105.436
lradius 102.092
lwrist -9.00791
lhand -23.5905 25.0234
lfingers 7.12502
lthumb 2.87279 54.9838
rfemur 22.0733 -14.8667 24.8498
rtibia 55.5999
rfoot -2.77338 -13.5648
rtoes -18.3525
lfemur -37.9311 8.98974 -26.6965
ltibia 23.1313
lfoot 15.6089 -10.0988
ltoes 4.7316
